<?xml version="1.0" standalone="no"?>
<!DOCTYPE svg PUBLIC "-//W3C//DTD SVG 20010904//EN"
 "http://www.w3.org/TR/2001/REC-SVG-20010904/DTD/svg10.dtd">
<svg version="1.0" xmlns="http://www.w3.org/2000/svg"
 width="200.000000pt" height="200.000000pt" viewBox="0 0 200.000000 200.000000"
 preserveAspectRatio="xMidYMid meet">
<metadata>
Created by potrace 1.15, written by Peter Selinger 2001-2017
</metadata>
<g transform="translate(0.000000,200.000000) scale(0.100000,-0.100000)"
fill="#000000" stroke="none">
<path d="M623 1568 c8 -76 22 -108 48 -108 23 0 23 -4 2 87 -5 21 -3 21 29 13
18 -6 74 -9 123 -7 78 2 95 -1 126 -20 45 -28 59 -29 112 -1 36 18 60 21 165
22 l122 2 0 -33 c0 -26 4 -33 19 -33 22 0 31 26 31 89 l0 43 -32 -7 c-18 -3
-91 -10 -163 -14 -93 -5 -140 -12 -166 -25 -35 -18 -37 -18 -77 3 -36 18 -57
21 -149 19 -66 -1 -117 3 -130 10 -12 7 -32 12 -44 12 -20 0 -21 -3 -16 -52z"/>
<path d="M741 1484 c-44 -23 -82 -83 -89 -139 -19 -174 196 -271 311 -141 69
79 57 209 -24 267 -44 31 -148 38 -198 13z m165 -49 c35 -22 67 -96 58 -132
-32 -133 -200 -153 -254 -29 -21 46 -17 84 15 133 34 52 124 66 181 28z"/>
<path d="M1161 1484 c-103 -53 -120 -228 -28 -298 57 -43 142 -54 199 -25 11
6 18 4 22 -7 8 -20 8 -93 0 -133 l-6 -31 -30 41 c-62 86 -225 154 -236 98 -2
-12 7 -18 30 -23 67 -12 170 -84 184 -128 3 -10 12 -18 20 -18 19 0 18 -4 -10
-49 -85 -134 -270 -191 -414 -126 -33 15 -78 46 -102 70 -37 37 -41 47 -35 73
16 73 96 144 193 173 46 13 50 20 27 39 -32 27 -162 -35 -213 -100 -10 -14
-26 -38 -34 -55 l-16 -29 -11 39 c-6 22 -11 73 -11 113 0 65 -2 72 -20 72 -45
0 -39 -157 10 -257 36 -72 112 -147 142 -137 13 4 21 -1 27 -19 28 -72 317
-74 349 -2 8 16 17 22 30 18 28 -7 93 54 130 124 39 75 55 163 44 239 -8 48
-6 64 9 98 36 80 13 180 -52 227 -44 31 -148 38 -198 13z m165 -49 c35 -22 67
-96 58 -132 -32 -133 -200 -153 -254 -29 -21 46 -17 84 15 133 34 52 124 66
181 28z"/>
</g>
</svg>
